<svg id="-duJ-UbPd" viewBox="0 0 312.5 312.5" height="312.5" width="312.5" style="width: 312.5px; height: 312.5px; position: absolute; top: 50%; left: 50%; z-index: 0; cursor: pointer; transform: translate(-50%, -50%) scale(0.42784);"><defs id="SvgjsDefs1223"></defs><g id="SvgjsG1224" featurekey="rootContainer" transform="matrix(6.25,0,0,6.25,0,0)" fill="#111111"><path xmlns="http://www.w3.org/2000/svg" d="M50 25c0 8.88-3.62 15.67-10.6 20.11C35.53 47.58 29.93 50 25 50c-8.63 0-14.24-1.37-18.73-8C3.57 38 0 30.2 0 25c0-6.85 1.76-14.06 6.22-18.58S18.04 0 25 0c9.5 0 16.77 5.3 21 13.11 1.88 3.53 4 7.58 4 11.89z"></path></g><g id="SvgjsG1225" featurekey="symbolFeature-0" transform="matrix(0.8888929486274719,0,0,0.8888929486274719,111.55553012412403,63.96933494941604)" fill="#ffffff"><path xmlns="http://www.w3.org/2000/svg" d="M86.2626953,31.2838745c-1.2436523-1.7509766-2.9437866-3.2216797-4.9151001-4.4445801L81.0578003,26.65448  c-10.0050659-6.1768188-22.5686035-6.8908691-22.5686035-6.8908691s-14.4879761-1.4905396-28.0026245,0.2106323  c4.2982788-0.3986206,17.8250732-0.3250732,31.1079712,13.7368164  c15.6829834,16.6027832-0.2783203,26.5813599-10.9178467,24.7897339  c13.5184326,2.6176147,28.5919189,1.5603027,35.480896-12.1366577c3.1293945-6.2219849,2.7440186-10.9592896,0.4520264-14.557251  c3.6889038,3.9385986,4.9945679,9.4838867,1.1161499,17.2310181c-12.3829956,24.7347412-50.2827148,9.883606-61.0335693,4.1373291  S4.2945557,34.7567139,13.5895996,26.7119141c1.163269-1.0067749,2.7336426-1.8469849,4.5906372-2.5466919  c-3.9359131,1.3771362-7.246521,3.2702026-9.3623657,5.8527832c-10.4755249,12.7868652,2.6504517,31.2974243,14.7668457,40.4309082  c12.116333,9.1334839,54.8297729,32.7388306,68.7855225-6.5761108  C98.1521606,47.5844727,93.6275024,37.5082397,86.2626953,31.2838745z"></path><path xmlns="http://www.w3.org/2000/svg" d="M23.6671753,48.4591675c-0.392395-0.5911865-1.6193237-3.0639648,2.0359497-6.9261475  c4.1113892-4.3441162,14.4078979-9.1376953,26.7697754-7.9277344c0,0,5.0716553,0.3474731,7.352417,3.18927  c-0.4291992-0.5715332-0.8917847-1.1514893-1.3919678-1.7401733C46.6472168,21.1826172,34.6447144,21.1100464,30.8307495,21.5032959  c-0.4152222,0.0581055-0.8292847,0.1199951-1.2419434,0.1858521c-3.1446533,0.5018921-6.1959229,1.2341919-8.9019165,2.2819214  c-1.5899658,0.6629028-2.9344482,1.4589844-3.9303589,2.4128418C10.0442505,32.8127441,16.0874634,42.3605957,23.6671753,48.4591675  z"></path></g><g id="SvgjsG1226" featurekey="nameFeature-0" transform="matrix(2.2289540767669678,0,0,2.2289540767669678,54.67971497262996,117.10252904274886)" fill="#ffffff"><path d="M13.4 28.880000000000003 c0.04 -1.28 -0.12 -2.16 -0.52 -3.04 c-0.24 -0.52 -0.6 -0.92 -1.16 -1.16 c-0.88 -0.4 -1.8 -0.12 -2.24 0.76 c-0.2 0.44 -0.4 0.96 -0.36 1.44 c0.08 1.72 0.84 3.12 2.32 4.08 c0.28 0.16 0.6 0.28 0.92 0.36 c0.36 0.12 0.64 -0.04 0.72 -0.44 c0.16 -0.76 0.24 -1.56 0.32 -2 z M21.48 28.2 c0.52 0.44 0.72 1.12 0.4 1.72 c-0.2 0.44 -0.44 0.84 -0.76 1.16 c-1.24 1.48 -2.84 2.4 -4.68 2.96 c-0.2 0.08 -0.44 0.12 -0.68 0.16 c-0.52 0.08 -0.88 0.36 -1.16 0.88 c-0.84 1.6 -2.04 2.92 -3.6 3.84 s-3.28 1.28 -5.08 0.84 c-1.04 -0.28 -1.92 -0.8 -2.64 -1.56 c-1.72 -1.84 -2.6 -4.04 -2.68 -6.56 c-0.04 -0.96 0.08 -1.88 0.28 -2.8 c0.16 -0.72 0.4 -1.44 0.84 -2.04 c0.2 -0.32 0.48 -0.6 0.76 -0.8 c0.56 -0.36 1.2 -0.28 1.68 0.12 c0.4 0.36 0.6 1 0.4 1.56 c-0.08 0.2 -0.2 0.4 -0.32 0.6 c-1.16 2.28 -0.8 5.4 0.8 7.44 c0.92 1.16 1.96 1.56 3.76 1 c0.96 -0.28 1.64 -1 2.32 -1.76 c0.48 -0.56 0.48 -0.64 -0.2 -0.96 c-1.6 -0.72 -2.92 -1.84 -3.76 -3.4 c-0.76 -1.4 -1.12 -2.88 -0.96 -4.44 c0.16 -1.48 0.76 -2.72 1.88 -3.64 c1.32 -1.04 2.76 -1.32 4.36 -0.76 c1.52 0.56 2.64 1.56 3.28 3.08 c0.56 1.32 0.68 2.68 0.64 4.12 c-0.04 0.28 -0.08 0.56 -0.08 0.84 c0.04 0.32 -0.2 0.72 0.12 1.04 l0.88 -0.36 c0.68 -0.4 1.24 -0.88 1.72 -1.44 c0.2 -0.24 0.44 -0.52 0.68 -0.72 c0.52 -0.48 1.28 -0.52 1.8 -0.12 z M47.349999999999994 36.72 c0.64 0.2 0.96 0.68 0.92 1.4 c-0.04 0.56 -0.36 1.08 -0.92 1.24 c-0.32 0.12 -0.64 0.2 -0.96 0.24 c-0.72 0.12 -1.48 0.24 -2.2 0.32 c-0.48 0.04 -0.96 0 -1.4 -0.08 c-0.68 -0.16 -1.08 -0.64 -1.08 -1.28 c-0.04 -0.64 0.28 -1.08 0.8 -1.36 c0.16 -0.08 0.28 -0.16 0.4 -0.16 c0.76 -0.04 0.84 -0.56 0.88 -1.16 c0.04 -1.08 0.2 -2.16 0.2 -3.2 c0.04 -1.08 -0.16 -2.16 -0.52 -3.16 c-0.16 -0.48 -0.4 -0.96 -0.68 -1.4 c-0.64 -0.92 -1.32 -1.04 -2.24 -0.32 c-0.44 0.32 -0.84 0.76 -1.12 1.2 c-0.44 0.68 -0.8 1.4 -1.12 2.12 c-0.6 1.44 -1.08 2.96 -1.28 4.56 c-0.04 0.44 -0.16 0.84 -0.4 1.16 c-0.6 0.84 -1.8 0.8 -2.36 -0.08 c-0.2 -0.36 -0.32 -0.76 -0.28 -1.2 l0 -1.52 l0 -1.72 c0.04 -1.8 -0.16 -3.88 -0.6 -5.96 c-0.2 -1 -0.52 -1.96 -1.04 -2.88 c-0.84 -1.48 -2.24 -1.4 -3.32 -0.56 c-0.76 0.6 -1.36 1.4 -1.8 2.28 c-1 2 -1.64 4.16 -1.68 6.44 c-0.04 1.16 0.04 2.32 0.04 3.48 c0.04 0.4 0.04 0.76 0 1.12 c-0.04 0.72 -0.48 1.2 -1.2 1.36 c-0.6 0.12 -1.28 -0.28 -1.56 -0.92 c-0.16 -0.32 -0.24 -0.64 -0.32 -0.96 c-0.64 -2.88 -1.16 -5.84 -1.64 -8.76 c-0.04 -0.32 -0.04 -0.68 -0.08 -1 s-0.04 -0.68 -0.16 -0.92 c-0.2 -0.4 -0.6 -0.16 -0.92 -0.24 c-0.36 -0.08 -0.68 -0.2 -0.96 -0.52 c-0.44 -0.48 -0.44 -1.28 0.04 -1.8 c0.16 -0.2 0.4 -0.36 0.64 -0.48 c0.68 -0.32 1.36 -0.68 2.04 -0.92 c0.32 -0.16 0.72 -0.2 1.08 -0.16 c0.72 0.04 1.32 0.76 1.16 1.44 c-0.24 0.92 -0.08 1.76 -0.04 2.64 c0 0.08 0.08 0.12 0.12 0.2 c0.08 -0.04 0.16 -0.12 0.2 -0.16 c0.48 -0.88 0.92 -1.72 1.48 -2.56 c0.56 -0.92 1.32 -1.64 2.24 -2.24 c2.48 -1.6 5.32 -1.04 7 1.4 c0.68 1.04 1.16 2.24 1.44 3.48 c0.08 0.2 0.04 0.48 0.16 0.68 c0.24 0.48 0 1.12 0.48 1.52 c0.48 -0.24 0.68 -0.76 1.04 -1.12 c0.64 -0.56 1.28 -1.08 2.04 -1.44 c1.76 -0.8 3.56 -0.44 4.84 1 c0.6 0.64 1.04 1.4 1.36 2.24 c0.56 1.36 0.84 2.76 0.84 4.24 c0 1.2 -0.04 2.44 -0.08 3.64 c-0.04 0.44 0.08 0.68 0.52 0.84 z M67.33999999999999 32.2 c0.12 -0.16 0.2 -0.36 0.16 -0.52 c-0.04 -0.32 -0.16 -0.6 -0.52 -0.72 c-0.8 -0.28 -1.64 -0.24 -2.64 -0.28 c-0.4 0 -0.96 0 -1.52 0.08 c-1.28 0.16 -2.4 0.68 -3.24 1.72 c-0.44 0.52 -0.32 1.08 0.32 1.36 c0.32 0.16 0.68 0.24 1.04 0.28 c0.8 0.12 1.6 0.04 2.36 -0.12 c1.28 -0.32 2.48 -0.84 3.6 -1.48 c0.16 -0.12 0.36 -0.2 0.44 -0.32 z M71.97999999999999 37.6 c0.68 0.16 1.16 0.76 1.2 1.36 c0 0.56 -0.4 1.16 -1.04 1.4 c-0.2 0.08 -0.44 0.16 -0.64 0.16 c-1.52 0.2 -3.08 0.36 -4.6 0.36 c-0.32 -0.04 -0.68 0 -1 -0.08 c-0.68 -0.16 -1.08 -0.72 -1.08 -1.4 c0.04 -0.72 0.44 -1.24 1.16 -1.4 c0.16 -0.04 0.36 -0.04 0.56 -0.04 c1 -0.12 1.04 -0.12 1.08 -1.2 c0.04 -0.32 0 -0.64 0 -0.96 c0 -0.04 -0.16 -0.16 -0.2 -0.12 c-0.28 0.08 -0.52 0.16 -0.8 0.28 c-1.12 0.52 -2.32 0.92 -3.56 1.12 c-1.44 0.24 -2.8 0.12 -4.12 -0.4 c-2.88 -1.12 -3.36 -4.12 -1.6 -6.2 c0.84 -1 1.96 -1.72 3.2 -2.2 c0.96 -0.36 1.96 -0.6 3 -0.6 l1.68 0 c0.4 0 0.84 0.2 1.2 -0.12 c-0.16 -0.4 -0.28 -0.8 -0.48 -1.16 c-1.04 -1.92 -2.56 -3.32 -4.72 -3.92 c-3.12 -0.84 -5.88 0.72 -7.24 2.92 c-0.36 0.56 -0.6 1.2 -0.6 1.84 l0 0.56 c-0.12 0.88 -0.68 1.52 -1.4 1.52 c-0.8 0.04 -1.4 -0.6 -1.48 -1.56 c-0.08 -1 0.04 -1.96 0.44 -2.88 c1 -2.24 2.64 -3.8 4.84 -4.8 c3 -1.32 5.92 -1.04 8.72 0.6 c2.36 1.4 3.88 3.48 4.84 6 c0.6 1.56 0.96 3.2 1.12 4.88 c0.08 1.04 0.2 2.12 0.28 3 c-0.04 0.92 -0.08 1.68 -0.16 2.44 c-0.04 0.4 0.08 0.52 0.56 0.56 c0.28 0 0.56 0 0.84 0.04 z M89.60999999999999 22.68 c1.04 0.72 0.92 2.08 -0.24 2.56 c-0.32 0.16 -0.64 0.16 -0.92 0.04 c-0.32 -0.12 -0.6 -0.28 -0.92 -0.4 c-1.72 -0.84 -3.24 -0.44 -4.68 0.68 c-0.64 0.48 -1.08 1.16 -1.44 1.84 c-1.04 1.92 -1.8 3.92 -2 6.08 l-0.24 2.84 c0.08 0.8 0.08 1.48 0.16 2.2 c0.08 0.48 0 0.92 -0.2 1.36 c-0.24 0.48 -0.68 0.8 -1.2 0.8 c-0.6 0 -1.12 -0.24 -1.36 -0.84 c-0.12 -0.2 -0.16 -0.4 -0.2 -0.64 c-0.12 -0.56 -0.2 -1.12 -0.24 -1.68 l-0.36 -5.72 c-0.12 -2.12 -0.32 -4.28 -0.44 -6.4 c-0.04 -0.56 -0.04 -1.12 -0.04 -1.68 c0 -0.44 0.16 -0.84 0.4 -1.2 c0.56 -0.84 1.84 -0.76 2.32 0.12 c0.24 0.36 0.28 0.76 0.28 1.2 c0.04 0.72 0.04 1.4 0.08 2.12 c0 0.04 0.08 0.16 0.16 0.16 s0.16 -0.04 0.24 -0.12 c0.28 -0.4 0.56 -0.84 0.84 -1.28 c1.2 -1.68 2.84 -2.68 4.8 -3.12 c1.88 -0.4 3.64 0 5.2 1.08 z"></path></g><g id="SvgjsG1227" featurekey="sloganFeature-0" transform="matrix(0.9075701832771301,0,0,0.9075701832771301,75.10136454127147,213.5825117973408)" fill="#ffffff"><path d="M9.42 16.32 c0.12 -0.26 0.22 -0.52 0.32 -0.78 c0.22 -0.64 0.26 -1.3 0.32 -1.96 c0.12 -1.4 0.08 -2.82 -0.28 -4.18 c-0.44 -1.74 -1.56 -3.34 -3.24 -4.08 c-0.76 -0.34 -1.62 -0.38 -2.44 -0.36 c-0.86 0 -1.74 -0.04 -2.6 0.04 c-0.24 0.02 -0.36 0.14 -0.4 0.36 c-0.04 0.24 -0.08 0.48 -0.08 0.7 c0.04 1.22 0 4.84 0.04 5.44 c0.02 0.54 -0.04 1.2 -0.04 1.74 c0.02 1.34 0 2.7 0 4.04 c0 0.56 -0.02 1.1 -0.02 1.66 c0 0.6 -0.22 0.86 1.42 0.86 c1.46 0 2.98 -0.12 4.36 -0.64 c1.28 -0.46 2.08 -1.64 2.64 -2.84 z M3.6 14.24 l0 -2.4 c0 -1.52 0.04 -2.5 -0.02 -3.78 l0 -0.24 c0.02 -0.42 0.08 -0.44 0.52 -0.44 c0.58 -0.02 1 0.12 1.5 0.32 s0.78 0.64 1.04 1.06 c0.5 0.82 0.7 1.72 0.74 2.66 c0.02 0.54 0.04 1.08 0.04 1.62 c0 2.56 -1.5 4.34 -2.82 4.34 c-0.88 0 -1.02 0.06 -1.02 -0.52 c0 -0.6 0.04 -1.2 0.04 -1.8 c-0.02 -0.26 -0.02 -0.54 -0.02 -0.82 z M25.628 8.68 c0.42 1.24 0.52 2.58 0.52 3.9 c0 1.1 -0.2 2.16 -0.48 3.22 c-0.36 1.26 -0.96 2.4 -2.04 3.14 c-0.8 0.58 -1.64 0.96 -2.62 1.06 c-0.14 0 -0.26 0.02 -0.4 0.02 c-0.12 0 -0.24 -0.02 -0.38 -0.02 c-0.98 -0.1 -1.82 -0.48 -2.64 -1.06 c-1.06 -0.74 -1.68 -1.88 -2.02 -3.14 c-0.3 -1.06 -0.48 -2.12 -0.48 -3.22 c0 -1.32 0.1 -2.66 0.52 -3.9 c0.74 -2.14 2.78 -3.66 5 -3.7 c2.22 0.04 4.26 1.56 5.02 3.7 z M23.688000000000002 14.04 c0.2 -1.22 0.12 -2.46 -0.12 -3.68 c-0.24 -1.1 -0.72 -2.18 -1.64 -2.84 c-0.16 -0.12 -0.34 -0.22 -0.52 -0.28 c-0.26 -0.12 -0.54 -0.16 -0.8 -0.16 s-0.52 0.04 -0.78 0.16 c-0.2 0.06 -0.36 0.16 -0.52 0.28 c-0.94 0.66 -1.42 1.74 -1.64 2.84 c-0.24 1.22 -0.32 2.46 -0.12 3.68 c0.2 1.1 0.6 2.58 1.64 3.14 c0.44 0.24 0.92 0.4 1.42 0.42 c0.5 -0.02 1 -0.18 1.44 -0.42 c1.04 -0.56 1.44 -2.04 1.64 -3.14 z M42.704 13.879999999999999 l0.02 5.84 c0 0.22 0.2 0.3 0.36 0.3 l1.84 0 c0.34 0 0.34 -0.3 0.34 -0.44 c0 -1.88 0 -3.9 0.08 -5.8 c0 -0.32 0.04 -0.62 0.2 -0.92 c0.18 -0.3 2.84 -6.24 3.14 -7.22 c0.04 -0.14 0.12 -0.38 -0.02 -0.5 c-0.24 -0.22 -1.2 -0.12 -1.78 -0.12 c-0.36 0 -0.58 0.14 -0.74 0.5 c-0.68 1.58 -1.38 3.14 -2.08 4.72 c-0.06 0.14 -0.14 0.14 -0.24 0 c-0.22 -0.36 -1.64 -3.88 -1.86 -4.66 c-0.04 -0.1 -0.06 -0.2 -0.12 -0.28 c-0.28 -0.32 -0.74 -0.28 -1.12 -0.28 c-0.5 0 -0.86 0.02 -1.34 0.02 c-0.32 0 -0.34 0.3 -0.28 0.56 c0.02 0.1 0.08 0.2 0.12 0.28 c0.76 1.44 2.9 6.2 3.28 7.1 c0.2 0.42 0.18 0.44 0.2 0.9 z M61.68000000000001 6.960000000000001 c-0.02 1.24 0.1 10.3 0.08 10.96 c0 0.62 0 1.24 0.02 1.86 c0 0.1 0.06 0.2 0.16 0.2 c1.4 0.06 2.78 -0.06 4.18 -0.04 c0.46 0.02 0.92 0 1.36 0 c0.44 -0.02 0.48 -0.2 0.46 -0.56 c-0.02 -0.56 -0.02 -1.06 -0.02 -1.6 c-0.02 -0.28 -0.18 -0.38 -0.42 -0.38 c-0.82 0.02 -1.64 -0.02 -2.46 0.02 c-0.14 0.02 -0.28 0.02 -0.42 0.02 c-0.24 -0.02 -0.3 -0.08 -0.32 -0.34 l0 -0.3 c-0.06 -1.66 0.06 -3.38 0.06 -5.04 c-0.02 -1.4 0 -2.66 -0.02 -3.9 c0 -0.54 0 -1.08 -0.02 -1.6 c-0.02 -0.32 0 -0.66 -0.08 -0.98 c-0.04 -0.12 -0.1 -0.28 -0.24 -0.28 l-1.88 0 c-0.32 0 -0.42 0.22 -0.44 0.54 l0 1.42 z M75.668 14.84 c-0.06 -2.28 -0.04 -4.7 -0.02 -6.96 c0 -0.7 -0.04 -1.46 -0.04 -2.16 c0 -0.76 -0.3 -0.72 -0.7 -0.74 c-0.58 -0.02 -0.84 -0.02 -1.42 -0.02 c-0.38 -0.02 -0.54 0.08 -0.54 0.46 c0 1.96 -0.06 7.5 -0.04 8.3 s0.1 4.44 0.06 5.24 c-0.02 0.28 0 0.56 0.02 0.84 c0.02 0.1 0.08 0.2 0.24 0.2 c0.66 -0.04 1.28 -0.04 1.94 -0.06 c0.24 -0.02 0.44 -0.08 0.54 -0.34 c0.02 -0.14 -0.04 -3.8 -0.04 -4.76 z M83.396 16.38 c0 -0.7 -0.1 -2.6 -0.08 -3 c0 -0.06 0.04 -0.14 0.06 -0.14 c0.04 0 0.12 0.04 0.14 0.06 c0.64 0.84 3.64 6.66 4 6.68 c0.1 0.02 0.2 0.02 0.3 0.02 c0.68 -0.04 1.28 0 1.96 0 c0.7 0 0.24 -0.68 0.12 -0.86 c-0.18 -0.26 -2.56 -4.52 -2.7 -4.78 c-0.4 -0.68 -0.74 -1.42 -1.14 -2.08 c-0.04 -0.08 -0.08 -0.2 -0.06 -0.28 c0.04 -0.24 0.1 -0.46 0.2 -0.68 c0.48 -0.94 0.98 -1.9 1.56 -2.8 c0.64 -1.02 1 -1.66 1.52 -2.58 c0.12 -0.22 0.2 -0.46 0.28 -0.72 c0.02 -0.1 -0.06 -0.2 -0.18 -0.2 c-0.38 -0.02 -1.76 0 -2.2 0 c-0.2 0 -0.4 0.04 -0.5 0.22 c-0.26 0.5 -2.94 5.4 -3.2 5.84 c-0.02 0.04 -0.08 0.06 -0.14 0.06 c0 0 -0.04 -0.06 -0.04 -0.1 c-0.02 -1.12 0.18 -4.78 0.14 -5.52 c-0.02 -0.44 -0.1 -0.48 -0.54 -0.5 c-0.48 -0.02 -1.14 -0.02 -1.62 -0.02 c-0.44 0 -0.48 0.24 -0.54 0.56 c-0.02 0.06 -0.02 1.94 -0.02 2.78 c0 1.22 -0.1 8.86 0.04 11.28 c0 0.24 0.06 0.38 0.26 0.38 c0.54 -0.04 1.34 0 1.88 0 c0.38 0 0.44 -0.04 0.44 -0.68 c0 -0.86 0.08 -1.64 0.08 -2.7 c0 -0.08 -0.02 -0.16 -0.02 -0.24 z M95.14399999999999 15.9 l-0.02 0 c0 0.5 -0.02 1.02 0 1.54 c0.02 0.64 0.06 1.28 0.1 1.92 c0 0.22 0.06 0.28 0.26 0.32 c0.42 0.1 0.82 0.12 1.24 0.12 c1.08 -0.04 2.16 0.04 3.24 0 c0.44 -0.02 0.64 0.02 1.08 -0.06 c0.4 -0.08 0.54 -0.3 0.54 -0.9 c-0.04 -0.38 -0.02 -0.54 -0.02 -1 c0 -0.66 -0.46 -0.88 -0.86 -0.86 c-0.28 0.02 -1.62 -0.02 -2.16 -0.02 c-0.9 0.02 -0.76 0.14 -0.76 -0.8 c0 -0.76 0.02 -1.74 0.02 -2.52 c0 -0.42 0.04 -0.56 0.44 -0.56 l2.5 0 c0.4 0.06 0.68 -0.22 0.68 -0.64 s0.04 -0.44 0.04 -0.86 l-0.06 -0.6 c-0.04 -0.34 -0.16 -0.46 -0.5 -0.46 c-0.22 0 -0.44 0.02 -0.66 0.04 c-0.86 0.06 -1.26 -0.06 -2.1 0 c-0.28 0 -0.32 -0.04 -0.34 -0.3 c-0.08 -0.78 0 -1.64 0.08 -2.42 c0.02 -0.32 0.1 -0.38 0.4 -0.4 l2.82 -0.02 c0.38 -0.04 0.5 -0.02 0.48 -0.4 c-0.04 -0.58 0.02 -1.18 -0.04 -1.76 c-0.04 -0.32 -0.14 -0.38 -0.5 -0.38 c-0.6 0.02 -0.74 0.02 -1.34 0.06 c-0.6 0.02 -3 0.02 -3.58 0.02 c-0.84 0 -0.9 -0.06 -0.92 0.96 c-0.04 0.8 -0.02 1.62 -0.02 2.44 c0 1.4 -0.08 6.42 -0.04 7.54 z M125.06 8.68 c0.42 1.24 0.52 2.58 0.52 3.9 c0 1.1 -0.2 2.16 -0.48 3.22 c-0.36 1.26 -0.96 2.4 -2.04 3.14 c-0.8 0.58 -1.64 0.96 -2.62 1.06 c-0.14 0 -0.26 0.02 -0.4 0.02 c-0.12 0 -0.24 -0.02 -0.38 -0.02 c-0.98 -0.1 -1.82 -0.48 -2.64 -1.06 c-1.06 -0.74 -1.68 -1.88 -2.02 -3.14 c-0.3 -1.06 -0.48 -2.12 -0.48 -3.22 c0 -1.32 0.1 -2.66 0.52 -3.9 c0.74 -2.14 2.78 -3.66 5 -3.7 c2.22 0.04 4.26 1.56 5.02 3.7 z M123.11999999999999 14.04 c0.2 -1.22 0.12 -2.46 -0.12 -3.68 c-0.24 -1.1 -0.72 -2.18 -1.64 -2.84 c-0.16 -0.12 -0.34 -0.22 -0.52 -0.28 c-0.26 -0.12 -0.54 -0.16 -0.8 -0.16 s-0.52 0.04 -0.78 0.16 c-0.2 0.06 -0.36 0.16 -0.52 0.28 c-0.94 0.66 -1.42 1.74 -1.64 2.84 c-0.24 1.22 -0.32 2.46 -0.12 3.68 c0.2 1.1 0.6 2.58 1.64 3.14 c0.44 0.24 0.92 0.4 1.42 0.42 c0.5 -0.02 1 -0.18 1.44 -0.42 c1.04 -0.56 1.44 -2.04 1.64 -3.14 z M138.448 7.359999999999999 c0.02 -0.66 0 -1.2 0 -1.84 c0 -0.74 -1.34 -0.66 -1.82 -0.64 c-2.14 0.14 -4.18 1.5 -5.16 3.36 c-0.28 0.54 -0.48 1.1 -0.62 1.68 c-0.34 1.36 -0.36 2.8 -0.2 4.18 c0.14 1.3 0.48 2.6 1.28 3.64 c1.38 1.82 3.92 2.46 6.1 2.12 c0.1 -0.02 0.2 -0.04 0.28 -0.1 c0.06 -0.04 0.12 -0.12 0.12 -0.2 l0.06 -1.14 c0.02 -0.36 0 -0.34 0 -0.7 c0 -0.48 -1 -0.12 -1.62 -0.12 c-0.6 0 -1.24 -0.02 -1.78 -0.3 c-0.96 -0.54 -1.5 -1.62 -1.8 -2.64 c-0.34 -1.1 -0.42 -2.28 -0.22 -3.4 c0.24 -1.46 0.94 -3.14 2.48 -3.64 c0.88 -0.3 1.82 -0.2 2.7 -0.1 c0.12 0.02 0.2 -0.06 0.2 -0.16 z M143.476 15.9 l-0.02 0 c0 0.5 -0.02 1.02 0 1.54 c0.02 0.64 0.06 1.28 0.1 1.92 c0 0.22 0.06 0.28 0.26 0.32 c0.42 0.1 0.82 0.12 1.24 0.12 c1.08 -0.04 2.16 0.04 3.24 0 c0.44 -0.02 0.64 0.02 1.08 -0.06 c0.4 -0.08 0.54 -0.3 0.54 -0.9 c-0.04 -0.38 -0.02 -0.54 -0.02 -1 c0 -0.66 -0.46 -0.88 -0.86 -0.86 c-0.28 0.02 -1.62 -0.02 -2.16 -0.02 c-0.9 0.02 -0.76 0.14 -0.76 -0.8 c0 -0.76 0.02 -1.74 0.02 -2.52 c0 -0.42 0.04 -0.56 0.44 -0.56 l2.5 0 c0.4 0.06 0.68 -0.22 0.68 -0.64 s0.04 -0.44 0.04 -0.86 l-0.06 -0.6 c-0.04 -0.34 -0.16 -0.46 -0.5 -0.46 c-0.22 0 -0.44 0.02 -0.66 0.04 c-0.86 0.06 -1.26 -0.06 -2.1 0 c-0.28 0 -0.32 -0.04 -0.34 -0.3 c-0.08 -0.78 0 -1.64 0.08 -2.42 c0.02 -0.32 0.1 -0.38 0.4 -0.4 l2.82 -0.02 c0.38 -0.04 0.5 -0.02 0.48 -0.4 c-0.04 -0.58 0.02 -1.18 -0.04 -1.76 c-0.04 -0.32 -0.14 -0.38 -0.5 -0.38 c-0.6 0.02 -0.74 0.02 -1.34 0.06 c-0.6 0.02 -3 0.02 -3.58 0.02 c-0.84 0 -0.9 -0.06 -0.92 0.96 c-0.04 0.8 -0.02 1.62 -0.02 2.44 c0 1.4 -0.08 6.42 -0.04 7.54 z M156.724 19.84 c0.06 0.02 0.24 0.02 0.42 0.02 c0.4 0 0.52 -1.44 0.56 -1.74 c0.02 -0.24 0.08 -0.26 0.28 -0.3 c1 -0.12 1.5 -0.04 2.5 -0.02 c0.22 0 0.34 0.1 0.4 0.28 l0.14 0.46 c0.12 0.34 0.22 0.76 0.34 1.1 c0.08 0.24 0.1 0.22 0.34 0.22 c0.32 0 1.48 0 1.82 -0.02 c0.46 0 0.14 -0.94 0.08 -1.1 c-0.18 -0.56 -0.22 -1.14 -0.4 -1.7 c-0.08 -0.24 -2.36 -11.06 -2.46 -11.66 c-0.14 -0.36 -0.02 -0.38 -0.34 -0.38 c-0.68 0 -1.4 0.04 -2.1 0 c-0.28 0 -0.26 0.08 -0.3 0.38 c-0.04 0.28 -0.76 3.46 -1.04 4.78 c-0.36 1.66 -0.68 3.26 -1.08 4.9 c-0.14 0.58 -1.1 4.76 -0.98 4.78 c0.06 0.04 0.16 0.02 0.24 0.02 c0.5 0 0.96 0 1.58 -0.02 z M159.344 15.3 l-0.42 0 c-0.56 0 -0.58 0 -0.44 -0.58 c0.1 -0.44 0.64 -2.82 0.76 -3.4 c0.02 -0.04 0.06 -0.08 0.08 -0.08 c0.04 0 0.08 0.04 0.1 0.06 c0.08 0.24 0.16 0.84 0.24 1.08 c0.18 0.76 0.3 1.4 0.48 2.22 c0.18 0.72 0.1 0.72 -0.26 0.72 c-0.18 0 -0.36 -0.02 -0.54 -0.02 z M177.252 5.460000000000001 c0.06 0.28 0.02 13.6 0.02 13.94 c0 0.6 -0.22 0.58 -0.62 0.58 c-0.6 0 -1.44 0.1 -1.62 -0.1 c-0.16 -0.14 -3.12 -7.28 -3.54 -8.18 c-0.04 -0.08 -0.14 -0.28 -0.22 -0.24 c-0.1 0.04 -0.06 0.18 -0.06 0.26 c-0.02 0.7 0.1 6.74 0.1 7.7 c0 0.48 -0.02 0.56 -0.42 0.56 l-1 0 c-0.26 0 -0.58 -0.02 -0.84 0.02 c-0.2 0 -0.3 -0.06 -0.32 -0.26 l0 -1.58 c0.04 -1.68 0 -11.64 0 -12.38 c0 -0.64 0.18 -0.76 0.82 -0.76 c0.44 -0.02 0.88 -0.02 1.32 -0.02 c0.14 0 0.22 0.02 0.3 0.2 c0.54 1.26 2.84 7.04 3.2 7.74 c0.06 0.14 0.28 0.7 0.4 0.76 l0.02 0 c0.08 -0.08 0.06 -0.48 0.06 -0.6 c0 -0.3 -0.16 -7.32 -0.16 -7.46 c0 -0.2 -0.06 -0.38 0.04 -0.52 c0.06 -0.08 0.32 -0.1 0.42 -0.12 c0.56 -0.04 1.22 0.02 1.78 0 c0.28 0 0.26 0.2 0.32 0.46 z"></path></g></svg>